<svg xmlns="http://www.w3.org/2000/svg" viewBox="0 0 64 64" x="0px" y="0px"><title>Ar-glasses-reality-virtual-virtualreality-vr</title><path d="M18.912,34a4,4,0,1,0-4-4A4,4,0,0,0,18.912,34Zm0-6a2,2,0,1,1-2,2A2,2,0,0,1,18.912,28Z"></path><path d="M37.087,23l.45,4.958-11.2-.934a8.027,8.027,0,0,0-2.42-3.259V23ZM18.912,24a6,6,0,1,1-6,6A6.006,6.006,0,0,1,18.912,24Zm-3-18h6V22.589a7.935,7.935,0,0,0-6,0V6Zm27.75,30h-5.75a1,1,0,0,0-1,1V49h-8a1,1,0,0,0-1,1V60h-18V50a1.009,1.009,0,0,0-.062-.348L8.336,45.566a85.652,85.652,0,0,1-4.11-16.031c-.08-.511-.136-1.021-.172-1.529-.013-.172-.011-.342-.019-.513-.015-.336-.031-.672-.028-1.006,0-.2.018-.4.026-.607.013-.3.024-.6.05-.9.02-.214.052-.425.078-.638.035-.281.07-.562.117-.84.038-.218.086-.432.131-.648.056-.269.112-.538.18-.8.055-.216.119-.429.182-.642.076-.259.154-.518.241-.773.073-.212.152-.422.232-.631.1-.249.194-.5.3-.743.089-.206.183-.41.279-.612.115-.241.234-.479.359-.715.1-.2.212-.394.324-.588.134-.232.273-.46.417-.686.119-.188.24-.375.366-.559.153-.222.312-.439.474-.655.133-.177.267-.354.406-.527.172-.212.352-.417.533-.622.145-.164.289-.329.44-.489.192-.2.394-.4.6-.59.154-.149.306-.3.466-.445.217-.194.444-.378.67-.563.16-.13.314-.264.478-.389.25-.191.513-.369.774-.548.153-.105.3-.216.458-.317.326-.209.664-.4,1.005-.592.1-.058.2-.122.306-.178l.017-.009V23.765a8,8,0,1,0,13,6.235,8.073,8.073,0,0,0-.058-.925l10.867.905L38,33.09A1,1,0,0,0,39,34h4.213ZM46,32H39.913L39.1,23H46ZM40.227,21H23.994L23.918,8.051A18.342,18.342,0,0,1,40.227,21Z"></path><path d="M48,30h7V28H48Z"></path><rect x="50" y="21" width="7" height="2"></rect><rect x="56" y="32" width="5" height="2"></rect><rect x="57" y="25" width="5" height="2"></rect><rect x="52" y="32" width="2" height="2"></rect><rect x="50" y="24" width="2" height="2"></rect></svg>