<svg xmlns="http://www.w3.org/2000/svg" data-name="Layer 1" viewBox="0 0 64 64" x="0px" y="0px"><title>perception-sensory-radar-awareness-sense</title><rect x="37" y="10" width="2" height="2"></rect><rect x="42" y="9" width="2" height="2"></rect><rect x="47" y="8" width="2" height="2"></rect><rect x="52" y="6" width="2" height="2"></rect><rect x="56" y="4" width="2" height="2"></rect><rect x="60" y="2" width="2" height="2"></rect><path d="M54.333,29.17871A6.45416,6.45416,0,0,0,48,35.73438a5.3636,5.3636,0,0,0,5.2666,5.44433,4.4912,4.4912,0,0,0,4.41309-4.55566,3.7931,3.7931,0,0,0-3.73047-3.84375,3.23492,3.23492,0,0,0-3.18457,3.27539h2a1.23388,1.23388,0,0,1,1.18457-1.27539,1.79192,1.79192,0,0,1,1.73047,1.84375,2.49,2.49,0,0,1-2.41309,2.55566A3.363,3.363,0,0,1,50,35.73438a4.45348,4.45348,0,0,1,4.333-4.55567A5.81732,5.81732,0,0,1,60,37.12305h2A7.818,7.818,0,0,0,54.333,29.17871Z"></path><path d="M9.45117,49.8916c.04492,0,.08887,0,.13379-.001A6.80135,6.80135,0,0,0,16.0957,43.1582a5.41459,5.41459,0,0,0-1.57129-3.96582,5.24089,5.24089,0,0,0-3.71-1.5A4.71759,4.71759,0,0,0,6.294,42.35547a3.82384,3.82384,0,0,0,1.1123,2.79883A3.69664,3.69664,0,0,0,10.04,46.21973a3.38176,3.38176,0,0,0,3.24707-3.33789l-2-.03516a1.36452,1.36452,0,0,1-1.28223,1.373,1.73528,1.73528,0,0,1-1.18457-.48047A1.83733,1.83733,0,0,1,8.294,42.39062a2.70018,2.70018,0,0,1,2.55566-2.69824,3.1941,3.1941,0,0,1,2.26074.91407,3.43184,3.43184,0,0,1,.98535,2.5166,4.78456,4.78456,0,0,1-4.5459,4.76757A5.31922,5.31922,0,0,1,5.60938,46.2959,5.912,5.912,0,0,1,3.90625,41.959l-2-.03515A7.89624,7.89624,0,0,0,4.19531,47.71,7.37356,7.37356,0,0,0,9.45117,49.8916Z"></path><rect x="25" y="10" width="2" height="2"></rect><rect x="20" y="9" width="2" height="2"></rect><rect x="15" y="8" width="2" height="2"></rect><rect x="10" y="6" width="2" height="2"></rect><rect x="6" y="4" width="2" height="2"></rect><rect x="2" y="2" width="2" height="2"></rect><rect x="25" y="14" width="2" height="2"></rect><rect x="20" y="15" width="2" height="2"></rect><rect x="15" y="16" width="2" height="2"></rect><rect x="10" y="18" width="2" height="2"></rect><rect x="6" y="20" width="2" height="2"></rect><rect x="2" y="22" width="2" height="2"></rect><rect x="37" y="14" width="2" height="2"></rect><rect x="42" y="15" width="2" height="2"></rect><rect x="47" y="16" width="2" height="2"></rect><rect x="52" y="18" width="2" height="2"></rect><rect x="56" y="20" width="2" height="2"></rect><rect x="60" y="22" width="2" height="2"></rect><rect x="31" y="2" width="2" height="2"></rect><rect x="31" y="6" width="2" height="2"></rect><path d="M33,15.81573a3.00011,3.00011,0,1,0-2-.00006V26.06909A7.99454,7.99454,0,0,0,28.13007,41h-.31758A9.81248,9.81248,0,0,0,18,50.8125V62H46V50.8125A9.81248,9.81248,0,0,0,36.18749,41h-.31756A7.99454,7.99454,0,0,0,33,26.06909ZM32,12a1,1,0,1,1-1,1A1.00067,1.00067,0,0,1,32,12ZM26.5,32h1a1.5,1.5,0,0,0,3,0h1a2.5,2.5,0,0,1-5,0ZM32,57a2,2,0,1,1,2-2A2,2,0,0,1,32,57Zm0-7a2,2,0,1,1,2-2A2,2,0,0,1,32,50Zm2-11.5H30v-1h4ZM33.5,32a1.5,1.5,0,0,0,3,0h1a2.5,2.5,0,0,1-5,0Z"></path></svg>