<svg xmlns="http://www.w3.org/2000/svg" xmlns:xlink="http://www.w3.org/1999/xlink" version="1.1" x="0px" y="0px" viewBox="0 0 100 100" enable-background="new 0 0 100 100" xml:space="preserve"><g><path d="M44.928,48.919l-1.743-1.401c0-3.01-1.086-0.873-4.309-0.873h-0.292c-3.223,0-4.31-2.137-4.31,0.873l-1.742,1.412   l-9.682,11.49c-1.01,1.18-0.87,2.954,0.31,3.963c0.531,0.452,1.179,0.674,1.826,0.674c0.793,0,1.581-0.333,2.139-0.984l4.708-5.672   l-0.835,11.341h2.012v0.2l-2.053,21.985c-0.144,1.546,0.993,2.917,2.539,3.062C33.585,94.996,33.673,95,33.76,95   c1.436,0,2.66-1.094,2.796-2.55l1.988-21.283h0.372l1.986,21.283C41.04,93.906,42.266,95,43.699,95   c0.088,0,0.176-0.004,0.265-0.012c1.546-0.145,2.681-1.516,2.539-3.062l-2.054-21.985v-0.2h2.012L45.625,58.39l4.86,5.687   c0.558,0.65,1.346,0.984,2.139,0.984c0.647,0,1.295-0.221,1.825-0.673c1.181-1.01,1.321-2.785,0.311-3.966L44.928,48.919z"></path><circle cx="38.805" cy="38.596" r="6.17"></circle><circle cx="51.319" cy="26.865" r="2.086"></circle><circle cx="47.148" cy="31.036" r="1.39"></circle><path d="M76.301,11.629c-1.002-1.002-2.311-1.507-3.623-1.521c-0.023-1.3-0.527-2.593-1.52-3.585c-2.031-2.031-5.323-2.031-7.355,0   c-2.03-2.031-5.324-2.03-7.354,0c-0.993,0.993-1.497,2.287-1.52,3.589c-1.29,0.029-2.571,0.533-3.557,1.518   c-2.031,2.031-2.032,5.324,0,7.355c0.794,0.794,1.779,1.272,2.808,1.446c0.011,1.316,0.517,2.631,1.521,3.636   c2.031,2.031,5.324,2.031,7.355,0c0.258-0.259,0.483-0.537,0.676-0.832c0.043,0.047,0.082,0.096,0.127,0.141   c2.031,2.032,5.324,2.031,7.355,0c0.81-0.809,1.291-1.819,1.455-2.869c1.314-0.012,2.627-0.518,3.631-1.521   C78.332,16.954,78.332,13.661,76.301,11.629z"></path></g></svg>