<?xml version="1.0" encoding="utf-8"?><!DOCTYPE svg PUBLIC "-//W3C//DTD SVG 1.1//EN" "http://www.w3.org/Graphics/SVG/1.1/DTD/svg11.dtd"><svg version="1.1" xmlns="http://www.w3.org/2000/svg" xmlns:xlink="http://www.w3.org/1999/xlink" x="0px" y="0px" viewBox="0 0 84.899 99.999" enable-background="new 0 0 84.899 99.999" xml:space="preserve"><path d="M18.373,1.392C23.048-1.395,29.11,0.134,31.9,4.815c2.79,4.68,1.247,10.728-3.43,13.515
	c-4.671,2.786-10.718,1.261-13.508-3.417C12.172,10.233,13.702,4.176,18.373,1.392L18.373,1.392z"></path><path d="M61.41,13.247c2.324-0.001,4.211,1.881,4.213,4.205l0.009,15.529c0.034,2.325-1.822,4.237-4.146,4.271
	c-2.325,0.034-4.237-1.822-4.271-4.147c-0.002-0.04-0.002-0.078-0.002-0.118l-0.007-11.318L45.86,21.673l-2.041,4.798l-0.098,0.226
	L57.47,49.407c0.39,0.643,0.599,1.377,0.607,2.128l0.269,22.36H80.63c2.324-0.031,4.235,1.827,4.269,4.151
	c0.033,2.325-1.825,4.236-4.15,4.268c-0.04,0.002-0.08,0.002-0.118,0H54.187c-2.305,0-4.181-1.853-4.208-4.157l-0.236-19.732
	c-0.135-0.046-0.268-0.099-0.396-0.158c-0.34,0.647-0.842,1.195-1.457,1.588L29.488,71.596v24.136
	c0.033,2.325-1.825,4.235-4.15,4.268c-2.324,0.033-4.235-1.825-4.268-4.148c0-0.04,0-0.08,0-0.119V69.289
	c0-1.438,0.733-2.776,1.944-3.549l16.891-10.777L28.283,35.651l-0.352-0.032L24,35.273l0.007,13.735
	c0.001,2.324-1.881,4.211-4.207,4.212c0,0,0,0-0.001,0L4.273,53.229C1.948,53.264,0.035,51.407,0,49.082s1.822-4.237,4.148-4.272
	c0.038,0,0.078,0,0.118,0l11.32-0.005l-0.007-14.127c-0.001-1.516,0.814-2.915,2.132-3.663l23.291-13.209
	c0.631-0.359,1.347-0.548,2.074-0.549L61.41,13.247z"></path></svg>