<svg xmlns="http://www.w3.org/2000/svg" xmlns:xlink="http://www.w3.org/1999/xlink" version="1.1" x="0px" y="0px" viewBox="0 0 48 48" style="enable-background:new 0 0 48 48;" xml:space="preserve"><path d="M37.62,20.48l2.59-3.59c2.63,6.47,1.15,13.96-3.84,18.95c-0.2,0.2-0.2,0.51,0,0.71c0.1,0.1,0.23,0.15,0.35,0.15  s0.26-0.05,0.35-0.15c5.34-5.34,6.87-13.39,3.95-20.29l4.45-1.15c-2.8-0.73-6.28-2.62-8.75-4.37  C37.46,13.68,37.96,17.61,37.62,20.48z"></path><path d="M11.27,36.2L9.41,25.61l-1.91,3.65c-2.23-6.34-0.66-13.38,4.13-18.17c0.2-0.2,0.2-0.51,0-0.71s-0.51-0.2-0.71,0  C5.8,15.51,4.16,23.05,6.62,29.8l-4.1,0.15L11.27,36.2z"></path><path d="M18.58,43.2C18.58,43.2,18.58,43.2,18.58,43.2c0.45,0.2,0.93,0.3,1.42,0.3c1.38,0,2.64-0.82,3.2-2.08l8-18  c0.54-1.21,0.34-2.66-0.52-3.68c-0.86-1.03-2.26-1.47-3.53-1.14l-0.62,0.15l4.6-9.19c0.86-1.73,0.16-3.83-1.56-4.7  c-0.84-0.42-1.78-0.49-2.67-0.19c-0.89,0.3-1.61,0.92-2.02,1.76l-8,16c-0.61,1.22-0.45,2.69,0.4,3.76c0.86,1.07,2.26,1.54,3.58,1.2  l1.04-0.26L16.8,38.58C16.02,40.35,16.82,42.42,18.58,43.2z M19.54,39.8l7.58-17.06l-7.01,1.75c-0.19,0.05-0.39-0.02-0.51-0.17  c-0.12-0.15-0.14-0.36-0.06-0.54l8-16c0.12-0.25,0.42-0.35,0.67-0.22s0.35,0.42,0.22,0.67l-7.51,15.03l6.95-1.74  c0.18-0.05,0.38,0.02,0.5,0.16c0.12,0.15,0.15,0.35,0.07,0.52l-8,18c-0.08,0.19-0.27,0.3-0.46,0.3c-0.07,0-0.14-0.01-0.2-0.04  C19.54,40.35,19.43,40.05,19.54,39.8z"></path></svg>