<svg xmlns="http://www.w3.org/2000/svg" xmlns:xlink="http://www.w3.org/1999/xlink" version="1.1" x="0px" y="0px" viewBox="0 0 100 100" enable-background="new 0 0 100 100" xml:space="preserve"><path fill="#000000" d="M94.334,45.516c0-7.749-6.281-14.033-14.033-14.033c-4.694,0-8.512,1.601-10.967,5.469  c-1.598,2.519-2.522,6.379-3.065,7.504c-1.381,2.852-0.771,4.231-11.296,4.873c-2.459,0.15-4.68,0.201-5.291,0.218  c0.211,0.005,0.229,0.008,0,0.008c-0.227,0-0.208-0.003,0-0.008c-0.608-0.017-2.831-0.067-5.291-0.218  c-10.523-0.642-9.914-2.021-11.294-4.873c-0.544-1.125-1.468-4.985-3.065-7.504c-2.457-3.868-6.273-5.469-10.968-5.469  c-7.75,0-14.033,6.284-14.033,14.033c0,7.751,5.574,9.199,10.857,9.42c0.176,0.007,0.359,0.012,0.545,0.012  c5.285,0,13.053-2.953,18.473-3.574c2.431-0.278,5.837-0.338,8.907-0.338c2.354,0,4.51,0.036,5.869,0.036  c1.36,0,3.514-0.036,5.87-0.036c3.068,0,6.476,0.06,8.906,0.338c5.422,0.621,13.19,3.574,18.476,3.574  c0.185,0,0.367-0.005,0.545-0.012C88.761,54.715,94.334,53.267,94.334,45.516z"></path><g><g><path fill="#000000" d="M14.141,62.957c-1.857,0-2.82-0.952-3.451-1.783c-0.229-0.301-0.17-0.729,0.131-0.956    c0.299-0.228,0.727-0.171,0.955,0.133c0.459,0.601,1.057,1.242,2.366,1.242s1.908-0.642,2.365-1.242    c0.228-0.304,0.656-0.36,0.956-0.133c0.301,0.228,0.358,0.656,0.131,0.956C16.96,62.005,15.998,62.957,14.141,62.957z"></path></g><g><path fill="#000000" d="M25.238,62.957c-1.856,0-2.82-0.952-3.45-1.783c-0.229-0.3-0.17-0.729,0.131-0.956    c0.298-0.228,0.728-0.171,0.955,0.133c0.458,0.601,1.057,1.242,2.365,1.242c1.309,0,1.908-0.642,2.366-1.242    c0.228-0.304,0.655-0.36,0.956-0.133s0.358,0.655,0.131,0.956C28.058,62.005,27.097,62.957,25.238,62.957z"></path></g></g><g><g><path fill="#000000" d="M74.76,62.957c-1.855,0-2.819-0.952-3.45-1.783c-0.229-0.3-0.17-0.729,0.13-0.956    c0.301-0.228,0.729-0.171,0.955,0.133c0.459,0.601,1.059,1.242,2.365,1.242c1.312,0,1.909-0.642,2.364-1.242    c0.23-0.304,0.657-0.36,0.957-0.133c0.301,0.228,0.358,0.656,0.131,0.956C77.581,62.005,76.617,62.957,74.76,62.957z"></path></g><g><path fill="#000000" d="M85.859,62.957c-1.859,0-2.82-0.952-3.453-1.783c-0.227-0.3-0.168-0.729,0.131-0.956    s0.728-0.171,0.957,0.133c0.457,0.601,1.056,1.242,2.365,1.242c1.308,0,1.907-0.642,2.364-1.242    c0.229-0.304,0.656-0.358,0.954-0.133c0.301,0.228,0.359,0.655,0.133,0.956C88.678,62.005,87.717,62.957,85.859,62.957z"></path></g></g><path fill="#000000" d="M35.315,52.094c-0.84,3.285-2.257,6.719-4.074,9.684c-4.598,7.498-9.211,8.618-11.552,8.618  c-2.34,0-6.954-1.12-11.55-8.618C5.146,56.896,3.214,50.735,3.214,46.08c0-9.084,7.391-16.475,16.476-16.475  c9.086,0,16.476,7.391,16.476,16.475c0,0.385-0.034,0.792-0.059,1.194c0.364,0.164,0.81,0.312,1.342,0.445  c0.046-0.559,0.08-1.111,0.08-1.64c0-9.836-8.002-17.84-17.84-17.84c-9.837,0-17.84,8.004-17.84,17.84  c0,4.89,2.013,11.33,5.126,16.41c3.665,5.978,8.18,9.27,12.713,9.27s9.048-3.292,12.714-9.27c1.966-3.207,3.49-6.957,4.348-10.518  C36.228,52.008,35.753,52.048,35.315,52.094z"></path><path fill="#000000" d="M80.309,28.24c-9.837,0-17.839,8.004-17.839,17.84c0,0.47,0.035,0.965,0.07,1.461  c0.271-0.086,0.521-0.176,0.733-0.271c0.236-0.107,0.43-0.222,0.603-0.344c-0.013-0.281-0.041-0.572-0.041-0.846  c0-9.084,7.389-16.475,16.474-16.475s16.478,7.391,16.478,16.475c0,4.655-1.935,10.815-4.926,15.697  c-4.599,7.498-9.209,8.618-11.552,8.618c-2.339,0-6.952-1.12-11.551-8.618c-1.803-2.939-3.208-6.341-4.051-9.601  c-0.109-0.014-0.228-0.038-0.336-0.051c-0.339-0.039-0.718-0.072-1.113-0.105c0.86,3.546,2.379,7.276,4.338,10.47  c3.664,5.978,8.18,9.27,12.713,9.27c4.534,0,9.05-3.292,12.713-9.27c3.115-5.08,5.129-11.521,5.129-16.41  C98.15,36.244,90.146,28.24,80.309,28.24z"></path></svg>